<svg viewBox="0 0 32 32" xmlns="http://www.w3.org/2000/svg" width="32" height="32" shape-rendering="crispEdges">
  <rect x="8" y="6" width="6" height="2" fill="#1a1c2c" />
  <rect x="18" y="6" width="6" height="2" fill="#1a1c2c" />
  <rect x="6" y="8" width="2" height="6" fill="#1a1c2c" />
  <rect x="14" y="8" width="4" height="2" fill="#1a1c2c" />
  <rect x="24" y="8" width="2" height="6" fill="#1a1c2c" />
  <rect x="6" y="14" width="2" height="2" fill="#1a1c2c" />
  <rect x="8" y="16" width="2" height="2" fill="#1a1c2c" />
  <rect x="10" y="18" width="2" height="2" fill="#1a1c2c" />
  <rect x="12" y="20" width="2" height="2" fill="#1a1c2c" />
  <rect x="14" y="22" width="4" height="2" fill="#1a1c2c" />
  <rect x="18" y="20" width="2" height="2" fill="#1a1c2c" />
  <rect x="20" y="18" width="2" height="2" fill="#1a1c2c" />
  <rect x="22" y="16" width="2" height="2" fill="#1a1c2c" />
  <rect x="24" y="14" width="2" height="2" fill="#1a1c2c" />
  <rect x="8" y="8" width="6" height="8" fill="#b13e53" />
  <rect x="18" y="8" width="6" height="8" fill="#b13e53" />
  <rect x="14" y="10" width="4" height="6" fill="#b13e53" />
  <rect x="8" y="14" width="16" height="2" fill="#b13e53" />
  <rect x="10" y="16" width="12" height="2" fill="#b13e53" />
  <rect x="12" y="18" width="8" height="2" fill="#b13e53" />
  <rect x="14" y="20" width="4" height="2" fill="#b13e53" />
  <rect x="9" y="9" width="2" height="2" fill="#f4f4f4" />
</svg>
