<svg viewBox="0 0 64 64" xmlns="http://www.w3.org/2000/svg" width="64" height="64" shape-rendering="crispEdges">
  <rect x="18" y="60" width="28" height="2" fill="#333c57" />
  <rect x="18" y="26" width="4" height="26" fill="#1a1c2c" />
  <rect x="42" y="26" width="4" height="26" fill="#1a1c2c" />
  <rect x="19" y="27" width="3" height="24" fill="#73eff7" />
  <rect x="42" y="27" width="3" height="24" fill="#73eff7" />
  <rect x="24" y="44" width="5" height="16" fill="#1a1c2c" />
  <rect x="35" y="44" width="5" height="16" fill="#1a1c2c" />
  <rect x="25" y="44" width="3" height="8" fill="#ffcd75" />
  <rect x="36" y="44" width="3" height="8" fill="#ffcd75" />
  <rect x="25" y="52" width="3" height="7" fill="#ffcd75" />
  <rect x="36" y="52" width="3" height="7" fill="#ffcd75" />
  <rect x="23" y="56" width="2" height="3" fill="#1a1c2c" />
  <rect x="23" y="57" width="1" height="2" fill="#ffcd75" />
  <rect x="39" y="56" width="2" height="3" fill="#1a1c2c" />
  <rect x="40" y="57" width="1" height="2" fill="#ffcd75" />
  <rect x="21" y="24" width="22" height="20" fill="#1a1c2c" />
  <rect x="22" y="25" width="20" height="18" fill="#ffcd75" />
  <rect x="22" y="25" width="20" height="2" fill="#ef7d57" />
  <rect x="31" y="27" width="2" height="12" fill="#ef7d57" />
  <rect x="22" y="40" width="20" height="3" fill="#5d275d" />
  <rect x="30" y="39" width="4" height="5" fill="#ffcd75" />
  <rect x="16" y="28" width="6" height="6" fill="#1a1c2c" />
  <rect x="17" y="29" width="4" height="4" fill="#ffcd75" />
  <rect x="42" y="28" width="6" height="6" fill="#1a1c2c" />
  <rect x="43" y="29" width="4" height="4" fill="#ffcd75" />
  <rect x="11" y="4" width="6" height="32" fill="#1a1c2c" />
  <rect x="12" y="5" width="4" height="28" fill="#73eff7" />
  <rect x="13" y="5" width="2" height="28" fill="#f4f4f4" />
  <rect x="8" y="31" width="12" height="3" fill="#ef7d57" />
  <rect x="13" y="34" width="2" height="5" fill="#1a1c2c" />
  <rect x="44" y="22" width="13" height="16" fill="#1a1c2c" />
  <rect x="45" y="23" width="11" height="14" fill="#94b0c2" />
  <rect x="47" y="25" width="7" height="10" fill="#ffcd75" />
  <rect x="49" y="25" width="3" height="6" fill="#ffcd75" />
  <rect x="22" y="6" width="20" height="18" fill="#1a1c2c" />
  <rect x="23" y="7" width="18" height="16" fill="#ffcd75" />
  <rect x="23" y="7" width="18" height="4" fill="#ffcd75" />
  <rect x="23" y="11" width="2" height="6" fill="#ffcd75" />
  <rect x="39" y="11" width="2" height="6" fill="#ffcd75" />
  <rect x="26" y="14" width="2" height="2" fill="#1a1c2c" />
  <rect x="36" y="14" width="2" height="2" fill="#1a1c2c" />
  <rect x="31" y="19" width="2" height="1" fill="#ef7d57" />
  <rect x="24" y="13" width="16" height="4" fill="#1a1c2c" />
  <rect x="26" y="14" width="2" height="2" fill="#73eff7" />
  <rect x="36" y="14" width="2" height="2" fill="#73eff7" />
</svg>
